<svg xmlns="http://www.w3.org/2000/svg" viewBox="0 0 800 160">
  <g>
    <circle cx="216" cy="40" r="2.0" fill="#6888b8" opacity="0.77"/>
    <circle cx="222" cy="40" r="2.0" fill="#6888b9" opacity="0.79"/>
    <circle cx="252" cy="40" r="2.0" fill="#6a8aba" opacity="0.73"/>
    <circle cx="258" cy="40" r="2.0" fill="#6a8bba" opacity="0.79"/>
    <circle cx="306" cy="40" r="2.0" fill="#6d8ebd" opacity="0.79"/>
    <circle cx="312" cy="40" r="2.0" fill="#6e8ebd" opacity="0.73"/>
    <circle cx="348" cy="40" r="2.0" fill="#7090bf" opacity="0.80"/>
    <circle cx="354" cy="40" r="2.0" fill="#7191bf" opacity="0.76"/>
    <circle cx="414" cy="40" r="2.0" fill="#7494c2" opacity="0.79"/>
    <circle cx="486" cy="40" r="2.0" fill="#7999c5" opacity="0.79"/>
    <circle cx="492" cy="40" r="2.0" fill="#7999c5" opacity="0.74"/>
    <circle cx="522" cy="40" r="2.0" fill="#7b9bc7" opacity="0.79"/>
    <circle cx="216" cy="46" r="2.0" fill="#6888b8" opacity="1.00"/>
    <circle cx="222" cy="46" r="2.0" fill="#6888b9" opacity="1.00"/>
    <circle cx="228" cy="46" r="2.0" fill="#6889b9" opacity="0.83"/>
    <circle cx="252" cy="46" r="2.0" fill="#6a8aba" opacity="0.99"/>
    <circle cx="258" cy="46" r="2.0" fill="#6a8bba" opacity="1.00"/>
    <circle cx="306" cy="46" r="2.0" fill="#6d8ebd" opacity="1.00"/>
    <circle cx="312" cy="46" r="2.0" fill="#6e8ebd" opacity="1.00"/>
    <circle cx="348" cy="46" r="2.0" fill="#7090bf" opacity="1.00"/>
    <circle cx="354" cy="46" r="2.0" fill="#7191bf" opacity="0.99"/>
    <circle cx="414" cy="46" r="2.0" fill="#7494c2" opacity="1.00"/>
    <circle cx="420" cy="46" r="2.0" fill="#7595c2" opacity="0.76"/>
    <circle cx="486" cy="46" r="2.0" fill="#7999c5" opacity="1.00"/>
    <circle cx="492" cy="46" r="2.0" fill="#7999c5" opacity="1.00"/>
    <circle cx="516" cy="46" r="2.0" fill="#7b9bc6" opacity="0.89"/>
    <circle cx="522" cy="46" r="2.0" fill="#7b9bc7" opacity="1.00"/>
    <circle cx="582" cy="46" r="2.0" fill="#7f9fc9" opacity="0.95"/>
    <circle cx="588" cy="46" r="2.0" fill="#809fca" opacity="1.00"/>
    <circle cx="210" cy="52" r="2.0" fill="#6788b8" opacity="0.86"/>
    <circle cx="216" cy="52" r="2.0" fill="#6888b8" opacity="1.00"/>
    <circle cx="222" cy="52" r="2.0" fill="#6888b9" opacity="1.00"/>
    <circle cx="228" cy="52" r="2.0" fill="#6889b9" opacity="1.00"/>
    <circle cx="252" cy="52" r="2.0" fill="#6a8aba" opacity="0.99"/>
    <circle cx="258" cy="52" r="2.0" fill="#6a8bba" opacity="1.00"/>
    <circle cx="306" cy="52" r="2.0" fill="#6d8ebd" opacity="1.00"/>
    <circle cx="312" cy="52" r="2.0" fill="#6e8ebd" opacity="1.00"/>
    <circle cx="414" cy="52" r="2.0" fill="#7494c2" opacity="1.00"/>
    <circle cx="420" cy="52" r="2.0" fill="#7595c2" opacity="0.76"/>
    <circle cx="486" cy="52" r="2.0" fill="#7999c5" opacity="1.00"/>
    <circle cx="492" cy="52" r="2.0" fill="#7999c5" opacity="1.00"/>
    <circle cx="498" cy="52" r="2.0" fill="#7a9ac6" opacity="1.00"/>
    <circle cx="516" cy="52" r="2.0" fill="#7b9bc6" opacity="0.89"/>
    <circle cx="522" cy="52" r="2.0" fill="#7b9bc7" opacity="1.00"/>
    <circle cx="582" cy="52" r="2.0" fill="#7f9fc9" opacity="0.98"/>
    <circle cx="588" cy="52" r="2.0" fill="#809fca" opacity="1.00"/>
    <circle cx="210" cy="58" r="2.0" fill="#6788b8" opacity="1.00"/>
    <circle cx="216" cy="58" r="2.0" fill="#6888b8" opacity="1.00"/>
    <circle cx="222" cy="58" r="2.0" fill="#6888b9" opacity="0.86"/>
    <circle cx="228" cy="58" r="2.0" fill="#6889b9" opacity="1.00"/>
    <circle cx="252" cy="58" r="2.0" fill="#6a8aba" opacity="0.99"/>
    <circle cx="258" cy="58" r="2.0" fill="#6a8bba" opacity="1.00"/>
    <circle cx="306" cy="58" r="2.0" fill="#6d8ebd" opacity="1.00"/>
    <circle cx="312" cy="58" r="2.0" fill="#6e8ebd" opacity="1.00"/>
    <circle cx="348" cy="58" r="2.0" fill="#7090bf" opacity="1.00"/>
    <circle cx="354" cy="58" r="2.0" fill="#7191bf" opacity="1.00"/>
    <circle cx="366" cy="58" r="2.0" fill="#7191bf" opacity="1.00"/>
    <circle cx="372" cy="58" r="2.0" fill="#7292c0" opacity="1.00"/>
    <circle cx="378" cy="58" r="2.0" fill="#7292c0" opacity="1.00"/>
    <circle cx="384" cy="58" r="2.0" fill="#7293c0" opacity="1.00"/>
    <circle cx="390" cy="58" r="2.0" fill="#7393c1" opacity="1.00"/>
    <circle cx="396" cy="58" r="2.0" fill="#7393c1" opacity="0.89"/>
    <circle cx="414" cy="58" r="2.0" fill="#7494c2" opacity="1.00"/>
    <circle cx="420" cy="58" r="2.0" fill="#7595c2" opacity="0.76"/>
    <circle cx="432" cy="58" r="2.0" fill="#7696c2" opacity="1.00"/>
    <circle cx="438" cy="58" r="2.0" fill="#7696c3" opacity="1.00"/>
    <circle cx="486" cy="58" r="2.0" fill="#7999c5" opacity="1.00"/>
    <circle cx="492" cy="58" r="2.0" fill="#7999c5" opacity="1.00"/>
    <circle cx="498" cy="58" r="2.0" fill="#7a9ac6" opacity="1.00"/>
    <circle cx="504" cy="58" r="2.0" fill="#7a9ac6" opacity="0.84"/>
    <circle cx="516" cy="58" r="2.0" fill="#7b9bc6" opacity="0.89"/>
    <circle cx="522" cy="58" r="2.0" fill="#7b9bc7" opacity="1.00"/>
    <circle cx="540" cy="58" r="2.0" fill="#7d9cc7" opacity="0.76"/>
    <circle cx="546" cy="58" r="2.0" fill="#7d9dc8" opacity="1.00"/>
    <circle cx="552" cy="58" r="2.0" fill="#7d9dc8" opacity="1.00"/>
    <circle cx="558" cy="58" r="2.0" fill="#7e9dc8" opacity="1.00"/>
    <circle cx="564" cy="58" r="2.0" fill="#7e9ec9" opacity="0.88"/>
    <circle cx="576" cy="58" r="2.0" fill="#7f9fc9" opacity="1.00"/>
    <circle cx="582" cy="58" r="2.0" fill="#7f9fc9" opacity="1.00"/>
    <circle cx="588" cy="58" r="2.0" fill="#809fca" opacity="1.00"/>
    <circle cx="594" cy="58" r="2.0" fill="#80a0ca" opacity="1.00"/>
    <circle cx="210" cy="64" r="2.0" fill="#6788b8" opacity="1.00"/>
    <circle cx="216" cy="64" r="2.0" fill="#6888b8" opacity="0.82"/>
    <circle cx="228" cy="64" r="2.0" fill="#6889b9" opacity="1.00"/>
    <circle cx="234" cy="64" r="2.0" fill="#6989b9" opacity="0.91"/>
    <circle cx="252" cy="64" r="2.0" fill="#6a8aba" opacity="0.99"/>
    <circle cx="258" cy="64" r="2.0" fill="#6a8bba" opacity="1.00"/>
    <circle cx="306" cy="64" r="2.0" fill="#6d8ebd" opacity="1.00"/>
    <circle cx="312" cy="64" r="2.0" fill="#6e8ebd" opacity="1.00"/>
    <circle cx="348" cy="64" r="2.0" fill="#7090bf" opacity="1.00"/>
    <circle cx="354" cy="64" r="2.0" fill="#7191bf" opacity="1.00"/>
    <circle cx="366" cy="64" r="2.0" fill="#7191bf" opacity="1.00"/>
    <circle cx="372" cy="64" r="2.0" fill="#7292c0" opacity="1.00"/>
    <circle cx="378" cy="64" r="2.0" fill="#7292c0" opacity="0.78"/>
    <circle cx="390" cy="64" r="2.0" fill="#7393c1" opacity="1.00"/>
    <circle cx="396" cy="64" r="2.0" fill="#7393c1" opacity="1.00"/>
    <circle cx="414" cy="64" r="2.0" fill="#7494c2" opacity="1.00"/>
    <circle cx="420" cy="64" r="2.0" fill="#7595c2" opacity="0.80"/>
    <circle cx="426" cy="64" r="2.0" fill="#7595c2" opacity="1.00"/>
    <circle cx="432" cy="64" r="2.0" fill="#7696c2" opacity="1.00"/>
    <circle cx="486" cy="64" r="2.0" fill="#7999c5" opacity="1.00"/>
    <circle cx="492" cy="64" r="2.0" fill="#7999c5" opacity="0.87"/>
    <circle cx="498" cy="64" r="2.0" fill="#7a9ac6" opacity="0.97"/>
    <circle cx="504" cy="64" r="2.0" fill="#7a9ac6" opacity="1.00"/>
    <circle cx="516" cy="64" r="2.0" fill="#7b9bc6" opacity="0.89"/>
    <circle cx="522" cy="64" r="2.0" fill="#7b9bc7" opacity="1.00"/>
    <circle cx="540" cy="64" r="2.0" fill="#7d9cc7" opacity="1.00"/>
    <circle cx="546" cy="64" r="2.0" fill="#7d9dc8" opacity="0.90"/>
    <circle cx="558" cy="64" r="2.0" fill="#7e9dc8" opacity="0.82"/>
    <circle cx="564" cy="64" r="2.0" fill="#7e9ec9" opacity="1.00"/>
    <circle cx="570" cy="64" r="2.0" fill="#7f9ec9" opacity="0.74"/>
    <circle cx="582" cy="64" r="2.0" fill="#7f9fc9" opacity="0.99"/>
    <circle cx="588" cy="64" r="2.0" fill="#809fca" opacity="1.00"/>
    <circle cx="204" cy="70" r="2.0" fill="#6787b8" opacity="0.95"/>
    <circle cx="210" cy="70" r="2.0" fill="#6788b8" opacity="1.00"/>
    <circle cx="228" cy="70" r="2.0" fill="#6889b9" opacity="1.00"/>
    <circle cx="234" cy="70" r="2.0" fill="#6989b9" opacity="1.00"/>
    <circle cx="252" cy="70" r="2.0" fill="#6a8aba" opacity="0.99"/>
    <circle cx="258" cy="70" r="2.0" fill="#6a8bba" opacity="1.00"/>
    <circle cx="276" cy="70" r="2.0" fill="#6b8cbb" opacity="1.00"/>
    <circle cx="282" cy="70" r="2.0" fill="#6c8cbc" opacity="1.00"/>
    <circle cx="288" cy="70" r="2.0" fill="#6c8dbc" opacity="1.00"/>
    <circle cx="306" cy="70" r="2.0" fill="#6d8ebd" opacity="1.00"/>
    <circle cx="312" cy="70" r="2.0" fill="#6e8ebd" opacity="1.00"/>
    <circle cx="348" cy="70" r="2.0" fill="#7090bf" opacity="1.00"/>
    <circle cx="354" cy="70" r="2.0" fill="#7191bf" opacity="1.00"/>
    <circle cx="366" cy="70" r="2.0" fill="#7191bf" opacity="1.00"/>
    <circle cx="372" cy="70" r="2.0" fill="#7292c0" opacity="1.00"/>
    <circle cx="390" cy="70" r="2.0" fill="#7393c1" opacity="0.90"/>
    <circle cx="396" cy="70" r="2.0" fill="#7393c1" opacity="1.00"/>
    <circle cx="414" cy="70" r="2.0" fill="#7494c2" opacity="1.00"/>
    <circle cx="420" cy="70" r="2.0" fill="#7595c2" opacity="1.00"/>
    <circle cx="426" cy="70" r="2.0" fill="#7595c2" opacity="1.00"/>
    <circle cx="432" cy="70" r="2.0" fill="#7696c2" opacity="0.81"/>
    <circle cx="456" cy="70" r="2.0" fill="#7797c4" opacity="1.00"/>
    <circle cx="462" cy="70" r="2.0" fill="#7897c4" opacity="1.00"/>
    <circle cx="468" cy="70" r="2.0" fill="#7898c4" opacity="1.00"/>
    <circle cx="486" cy="70" r="2.0" fill="#7999c5" opacity="1.00"/>
    <circle cx="492" cy="70" r="2.0" fill="#7999c5" opacity="0.87"/>
    <circle cx="504" cy="70" r="2.0" fill="#7a9ac6" opacity="1.00"/>
    <circle cx="510" cy="70" r="2.0" fill="#7b9ac6" opacity="0.99"/>
    <circle cx="516" cy="70" r="2.0" fill="#7b9bc6" opacity="0.89"/>
    <circle cx="522" cy="70" r="2.0" fill="#7b9bc7" opacity="1.00"/>
    <circle cx="534" cy="70" r="2.0" fill="#7c9cc7" opacity="0.84"/>
    <circle cx="540" cy="70" r="2.0" fill="#7d9cc7" opacity="1.00"/>
    <circle cx="546" cy="70" r="2.0" fill="#7d9dc8" opacity="0.90"/>
    <circle cx="552" cy="70" r="2.0" fill="#7d9dc8" opacity="0.85"/>
    <circle cx="558" cy="70" r="2.0" fill="#7e9dc8" opacity="0.86"/>
    <circle cx="564" cy="70" r="2.0" fill="#7e9ec9" opacity="1.00"/>
    <circle cx="570" cy="70" r="2.0" fill="#7f9ec9" opacity="0.94"/>
    <circle cx="582" cy="70" r="2.0" fill="#7f9fc9" opacity="0.97"/>
    <circle cx="588" cy="70" r="2.0" fill="#809fca" opacity="1.00"/>
    <circle cx="204" cy="76" r="2.0" fill="#6787b8" opacity="1.00"/>
    <circle cx="210" cy="76" r="2.0" fill="#6788b8" opacity="1.00"/>
    <circle cx="216" cy="76" r="2.0" fill="#6888b8" opacity="1.00"/>
    <circle cx="222" cy="76" r="2.0" fill="#6888b9" opacity="1.00"/>
    <circle cx="228" cy="76" r="2.0" fill="#6889b9" opacity="1.00"/>
    <circle cx="234" cy="76" r="2.0" fill="#6989b9" opacity="1.00"/>
    <circle cx="240" cy="76" r="2.0" fill="#698aba" opacity="0.75"/>
    <circle cx="252" cy="76" r="2.0" fill="#6a8aba" opacity="0.99"/>
    <circle cx="258" cy="76" r="2.0" fill="#6a8bba" opacity="1.00"/>
    <circle cx="276" cy="76" r="2.0" fill="#6b8cbb" opacity="0.95"/>
    <circle cx="282" cy="76" r="2.0" fill="#6c8cbc" opacity="0.95"/>
    <circle cx="288" cy="76" r="2.0" fill="#6c8dbc" opacity="0.95"/>
    <circle cx="306" cy="76" r="2.0" fill="#6d8ebd" opacity="1.00"/>
    <circle cx="312" cy="76" r="2.0" fill="#6e8ebd" opacity="1.00"/>
    <circle cx="348" cy="76" r="2.0" fill="#7090bf" opacity="1.00"/>
    <circle cx="354" cy="76" r="2.0" fill="#7191bf" opacity="1.00"/>
    <circle cx="366" cy="76" r="2.0" fill="#7191bf" opacity="1.00"/>
    <circle cx="372" cy="76" r="2.0" fill="#7292c0" opacity="1.00"/>
    <circle cx="390" cy="76" r="2.0" fill="#7393c1" opacity="0.88"/>
    <circle cx="396" cy="76" r="2.0" fill="#7393c1" opacity="1.00"/>
    <circle cx="414" cy="76" r="2.0" fill="#7494c2" opacity="1.00"/>
    <circle cx="420" cy="76" r="2.0" fill="#7595c2" opacity="1.00"/>
    <circle cx="426" cy="76" r="2.0" fill="#7595c2" opacity="1.00"/>
    <circle cx="432" cy="76" r="2.0" fill="#7696c2" opacity="1.00"/>
    <circle cx="456" cy="76" r="2.0" fill="#7797c4" opacity="0.95"/>
    <circle cx="462" cy="76" r="2.0" fill="#7897c4" opacity="0.95"/>
    <circle cx="468" cy="76" r="2.0" fill="#7898c4" opacity="0.95"/>
    <circle cx="486" cy="76" r="2.0" fill="#7999c5" opacity="1.00"/>
    <circle cx="492" cy="76" r="2.0" fill="#7999c5" opacity="0.87"/>
    <circle cx="504" cy="76" r="2.0" fill="#7a9ac6" opacity="0.82"/>
    <circle cx="510" cy="76" r="2.0" fill="#7b9ac6" opacity="1.00"/>
    <circle cx="516" cy="76" r="2.0" fill="#7b9bc6" opacity="1.00"/>
    <circle cx="522" cy="76" r="2.0" fill="#7b9bc7" opacity="1.00"/>
    <circle cx="534" cy="76" r="2.0" fill="#7c9cc7" opacity="0.87"/>
    <circle cx="540" cy="76" r="2.0" fill="#7d9cc7" opacity="1.00"/>
    <circle cx="546" cy="76" r="2.0" fill="#7d9dc8" opacity="0.92"/>
    <circle cx="552" cy="76" r="2.0" fill="#7d9dc8" opacity="0.87"/>
    <circle cx="558" cy="76" r="2.0" fill="#7e9dc8" opacity="0.87"/>
    <circle cx="564" cy="76" r="2.0" fill="#7e9ec9" opacity="0.87"/>
    <circle cx="570" cy="76" r="2.0" fill="#7f9ec9" opacity="0.78"/>
    <circle cx="582" cy="76" r="2.0" fill="#7f9fc9" opacity="0.97"/>
    <circle cx="588" cy="76" r="2.0" fill="#809fca" opacity="1.00"/>
    <circle cx="198" cy="82" r="2.0" fill="#6687b8" opacity="0.80"/>
    <circle cx="204" cy="82" r="2.0" fill="#6787b8" opacity="1.00"/>
    <circle cx="210" cy="82" r="2.0" fill="#6788b8" opacity="0.89"/>
    <circle cx="216" cy="82" r="2.0" fill="#6888b8" opacity="0.74"/>
    <circle cx="222" cy="82" r="2.0" fill="#6888b9" opacity="0.74"/>
    <circle cx="228" cy="82" r="2.0" fill="#6889b9" opacity="0.79"/>
    <circle cx="234" cy="82" r="2.0" fill="#6989b9" opacity="1.00"/>
    <circle cx="240" cy="82" r="2.0" fill="#698aba" opacity="0.99"/>
    <circle cx="252" cy="82" r="2.0" fill="#6a8aba" opacity="0.99"/>
    <circle cx="258" cy="82" r="2.0" fill="#6a8bba" opacity="1.00"/>
    <circle cx="306" cy="82" r="2.0" fill="#6d8ebd" opacity="1.00"/>
    <circle cx="312" cy="82" r="2.0" fill="#6e8ebd" opacity="1.00"/>
    <circle cx="348" cy="82" r="2.0" fill="#7090bf" opacity="1.00"/>
    <circle cx="354" cy="82" r="2.0" fill="#7191bf" opacity="1.00"/>
    <circle cx="366" cy="82" r="2.0" fill="#7191bf" opacity="1.00"/>
    <circle cx="372" cy="82" r="2.0" fill="#7292c0" opacity="1.00"/>
    <circle cx="390" cy="82" r="2.0" fill="#7393c1" opacity="0.88"/>
    <circle cx="396" cy="82" r="2.0" fill="#7393c1" opacity="1.00"/>
    <circle cx="414" cy="82" r="2.0" fill="#7494c2" opacity="1.00"/>
    <circle cx="420" cy="82" r="2.0" fill="#7595c2" opacity="0.77"/>
    <circle cx="432" cy="82" r="2.0" fill="#7696c2" opacity="1.00"/>
    <circle cx="438" cy="82" r="2.0" fill="#7696c3" opacity="0.97"/>
    <circle cx="486" cy="82" r="2.0" fill="#7999c5" opacity="1.00"/>
    <circle cx="492" cy="82" r="2.0" fill="#7999c5" opacity="0.87"/>
    <circle cx="510" cy="82" r="2.0" fill="#7b9ac6" opacity="1.00"/>
    <circle cx="516" cy="82" r="2.0" fill="#7b9bc6" opacity="1.00"/>
    <circle cx="522" cy="82" r="2.0" fill="#7b9bc7" opacity="1.00"/>
    <circle cx="534" cy="82" r="2.0" fill="#7c9cc7" opacity="0.73"/>
    <circle cx="540" cy="82" r="2.0" fill="#7d9cc7" opacity="1.00"/>
    <circle cx="546" cy="82" r="2.0" fill="#7d9dc8" opacity="0.75"/>
    <circle cx="564" cy="82" r="2.0" fill="#7e9ec9" opacity="0.89"/>
    <circle cx="582" cy="82" r="2.0" fill="#7f9fc9" opacity="0.97"/>
    <circle cx="588" cy="82" r="2.0" fill="#809fca" opacity="1.00"/>
    <circle cx="198" cy="88" r="2.0" fill="#6687b8" opacity="1.00"/>
    <circle cx="204" cy="88" r="2.0" fill="#6787b8" opacity="1.00"/>
    <circle cx="234" cy="88" r="2.0" fill="#6989b9" opacity="1.00"/>
    <circle cx="240" cy="88" r="2.0" fill="#698aba" opacity="1.00"/>
    <circle cx="252" cy="88" r="2.0" fill="#6a8aba" opacity="0.99"/>
    <circle cx="258" cy="88" r="2.0" fill="#6a8bba" opacity="1.00"/>
    <circle cx="306" cy="88" r="2.0" fill="#6d8ebd" opacity="1.00"/>
    <circle cx="312" cy="88" r="2.0" fill="#6e8ebd" opacity="1.00"/>
    <circle cx="318" cy="88" r="2.0" fill="#6e8ebd" opacity="1.00"/>
    <circle cx="324" cy="88" r="2.0" fill="#6f8fbd" opacity="1.00"/>
    <circle cx="330" cy="88" r="2.0" fill="#6f8fbe" opacity="1.00"/>
    <circle cx="336" cy="88" r="2.0" fill="#6f90be" opacity="1.00"/>
    <circle cx="348" cy="88" r="2.0" fill="#7090bf" opacity="1.00"/>
    <circle cx="354" cy="88" r="2.0" fill="#7191bf" opacity="1.00"/>
    <circle cx="366" cy="88" r="2.0" fill="#7191bf" opacity="1.00"/>
    <circle cx="372" cy="88" r="2.0" fill="#7292c0" opacity="1.00"/>
    <circle cx="390" cy="88" r="2.0" fill="#7393c1" opacity="0.88"/>
    <circle cx="396" cy="88" r="2.0" fill="#7393c1" opacity="1.00"/>
    <circle cx="414" cy="88" r="2.0" fill="#7494c2" opacity="1.00"/>
    <circle cx="420" cy="88" r="2.0" fill="#7595c2" opacity="0.76"/>
    <circle cx="432" cy="88" r="2.0" fill="#7696c2" opacity="0.93"/>
    <circle cx="438" cy="88" r="2.0" fill="#7696c3" opacity="1.00"/>
    <circle cx="444" cy="88" r="2.0" fill="#7696c3" opacity="0.76"/>
    <circle cx="486" cy="88" r="2.0" fill="#7999c5" opacity="1.00"/>
    <circle cx="492" cy="88" r="2.0" fill="#7999c5" opacity="0.87"/>
    <circle cx="516" cy="88" r="2.0" fill="#7b9bc6" opacity="1.00"/>
    <circle cx="522" cy="88" r="2.0" fill="#7b9bc7" opacity="1.00"/>
    <circle cx="540" cy="88" r="2.0" fill="#7d9cc7" opacity="0.97"/>
    <circle cx="546" cy="88" r="2.0" fill="#7d9dc8" opacity="1.00"/>
    <circle cx="552" cy="88" r="2.0" fill="#7d9dc8" opacity="1.00"/>
    <circle cx="558" cy="88" r="2.0" fill="#7e9dc8" opacity="1.00"/>
    <circle cx="564" cy="88" r="2.0" fill="#7e9ec9" opacity="1.00"/>
    <circle cx="582" cy="88" r="2.0" fill="#7f9fc9" opacity="0.89"/>
    <circle cx="588" cy="88" r="2.0" fill="#809fca" opacity="1.00"/>
    <circle cx="594" cy="88" r="2.0" fill="#80a0ca" opacity="1.00"/>
    <circle cx="552" cy="94" r="2.0" fill="#7d9dc8" opacity="0.81"/>
    <circle cx="558" cy="94" r="2.0" fill="#7e9dc8" opacity="0.76"/>
    <circle cx="594" cy="94" r="2.0" fill="#80a0ca" opacity="0.76"/>
  </g>
  <text x="400" y="142" text-anchor="middle"
        font-family="-apple-system, BlinkMacSystemFont, 'Segoe UI', Helvetica, Arial, sans-serif"
        font-size="11" fill="#6B8EC7" letter-spacing="5">
    DISCOVER · ORGANIZE · SECURE · TRADE · TRUST
  </text>
</svg>